<?xml version="1.0" encoding="UTF-8" standalone="no"?>
<!-- Created with Inkscape (http://www.inkscape.org/) -->

<svg
   xmlns:dc="http://purl.org/dc/elements/1.1/"
   xmlns:cc="http://creativecommons.org/ns#"
   xmlns:rdf="http://www.w3.org/1999/02/22-rdf-syntax-ns#"
   xmlns:svg="http://www.w3.org/2000/svg"
   xmlns="http://www.w3.org/2000/svg"
   xmlns:sodipodi="http://sodipodi.sourceforge.net/DTD/sodipodi-0.dtd"
   xmlns:inkscape="http://www.inkscape.org/namespaces/inkscape"
   width="90"
   height="380"
   viewBox="0 0 23.812501 100.54167"
   version="1.1"
   id="svg8"
   inkscape:version="0.92.2 5c3e80d, 2017-08-06"
   sodipodi:docname="CircleVCO.svg">
  <defs
     id="defs2" />
  <sodipodi:namedview
     id="base"
     pagecolor="#ffffff"
     bordercolor="#666666"
     borderopacity="1.0"
     inkscape:pageopacity="0.0"
     inkscape:pageshadow="2"
     inkscape:zoom="1.4"
     inkscape:cx="27.681321"
     inkscape:cy="199.25832"
     inkscape:document-units="px"
     inkscape:current-layer="layer1"
     showgrid="false"
     units="px"
     inkscape:snap-bbox="true"
     inkscape:snap-page="true"
     inkscape:bbox-nodes="true"
     inkscape:snap-bbox-edge-midpoints="true"
     inkscape:window-width="1358"
     inkscape:window-height="744"
     inkscape:window-x="0"
     inkscape:window-y="16"
     inkscape:window-maximized="0"
     showguides="false" />
  <metadata
     id="metadata5">
    <rdf:RDF>
      <cc:Work
         rdf:about="">
        <dc:format>image/svg+xml</dc:format>
        <dc:type
           rdf:resource="http://purl.org/dc/dcmitype/StillImage" />
        <dc:title></dc:title>
      </cc:Work>
    </rdf:RDF>
  </metadata>
  <g
     inkscape:label="Layer 1"
     inkscape:groupmode="layer"
     id="layer1"
     transform="translate(0,-196.45832)"
     style="display:inline">
    <path
       style="opacity:1;vector-effect:none;fill:#f0f0f0;fill-opacity:1;fill-rule:evenodd;stroke:none;stroke-width:0.48607069;stroke-linecap:butt;stroke-linejoin:round;stroke-miterlimit:4;stroke-dasharray:none;stroke-dashoffset:0;stroke-opacity:1;paint-order:normal"
       d="M 0,196.45831 H 23.8125 V 296.99999 H 0 Z"
       id="rect817"
       inkscape:connector-curvature="0" />
    <g
       aria-label="My Module"
       style="font-style:normal;font-variant:normal;font-weight:normal;font-stretch:normal;font-size:3.88055563px;line-height:6.61458302px;font-family:DINPro;-inkscape-font-specification:DINPro;font-variant-ligatures:normal;font-variant-caps:normal;font-variant-numeric:normal;font-feature-settings:normal;text-align:center;letter-spacing:0px;word-spacing:0px;writing-mode:lr-tb;text-anchor:middle;fill:#000000;fill-opacity:1;stroke:none;stroke-width:0.26458332px;stroke-linecap:butt;stroke-linejoin:miter;stroke-opacity:1"
       id="text925"
       transform="translate(8.646165,-4.7625)">
      <g
         aria-label="Circle VCO"
         style="font-style:normal;font-weight:normal;font-size:10.58333302px;line-height:1.25;font-family:sans-serif;letter-spacing:0px;word-spacing:0px;fill:#000000;fill-opacity:1;stroke:none;stroke-width:0.07000434px"
         id="text3853">
        <path
           d="m -3.8144185,209.88405 v 0.3669 q -0.1756999,-0.16364 -0.3755154,-0.2446 -0.198093,-0.081 -0.4220242,-0.081 -0.4409722,0 -0.6752387,0.27044 -0.2342665,0.26872 -0.2342665,0.77859 0,0.50815 0.2342665,0.77859 0.2342665,0.26872 0.6752387,0.26872 0.2239312,0 0.4220242,-0.081 0.1998155,-0.081 0.3755154,-0.2446 v 0.36346 q -0.1825901,0.12402 -0.3875732,0.18603 -0.2032607,0.062 -0.430637,0.062 -0.5839436,0 -0.9198404,-0.35656 -0.3358968,-0.35829 -0.3358968,-0.97669 0,-0.62011 0.3358968,-0.97668 0.3358968,-0.35829 0.9198404,-0.35829 0.2308214,0 0.4340821,0.062 0.2049831,0.0603 0.3841281,0.18259 z"
           style="font-size:3.52777767px;stroke-width:0.07000434px"
           id="path7945"
           inkscape:connector-curvature="0" />
        <path
           d="M -3.2873188,210.32847 H -2.97037 v 1.92925 h -0.3169488 z m 0,-0.75103 H -2.97037 v 0.40135 h -0.3169488 z"
           style="font-size:3.52777767px;stroke-width:0.07000434px"
           id="path7947"
           inkscape:connector-curvature="0" />
        <path
           d="m -1.1909782,210.62475 q -0.053399,-0.031 -0.1171333,-0.0448 -0.062012,-0.0155 -0.1378038,-0.0155 -0.2687174,0 -0.4134114,0.1757 -0.1429715,0.17397 -0.1429715,0.50126 v 1.0163 h -0.3186713 v -1.92925 h 0.3186713 v 0.29972 q 0.099908,-0.1757 0.2601047,-0.2601 0.160197,-0.0861 0.3892958,-0.0861 0.032728,0 0.072347,0.005 0.039619,0.003 0.08785,0.0121 z"
           style="font-size:3.52777767px;stroke-width:0.07000434px"
           id="path7949"
           inkscape:connector-curvature="0" />
        <path
           d="m 0.45749971,210.40254 v 0.29628 q -0.13435872,-0.0741 -0.27043999,-0.11025 -0.13435872,-0.0379 -0.27216254,-0.0379 -0.30833603,0 -0.47886825,0.19637 -0.17053223,0.19464 -0.17053223,0.54777 0,0.35312 0.17053223,0.54949 0.17053222,0.19465 0.47886825,0.19465 0.13780382,0 0.27216254,-0.0362 0.13608127,-0.0379 0.27043999,-0.11196 v 0.29283 q -0.13263618,0.062 -0.27560763,0.093 -0.14124891,0.031 -0.30144585,0.031 -0.43580457,0 -0.69246417,-0.27388 -0.25665956,-0.27389 -0.25665956,-0.73897 0,-0.47198 0.25838211,-0.74242 0.2601047,-0.27044 0.71141219,-0.27044 0.14641656,0 0.28594292,0.031 0.13952636,0.0293 0.27043999,0.0896 z"
           style="font-size:3.52777767px;stroke-width:0.07000434px"
           id="path7951"
           inkscape:connector-curvature="0" />
        <path
           d="m 1.0121604,209.57744 h 0.3169488 v 2.68028 H 1.0121604 Z"
           style="font-size:3.52777767px;stroke-width:0.07000434px"
           id="path7953"
           inkscape:connector-curvature="0" />
        <path
           d="m 3.640768,211.21386 v 0.15503 H 2.1834927 q 0.020671,0.32728 0.1963704,0.49954 0.1774224,0.17053 0.4926487,0.17053 0.18259,0 0.3531222,-0.0448 0.1722548,-0.0448 0.3410645,-0.13436 v 0.29973 q -0.1705322,0.0723 -0.3496772,0.11024 -0.179145,0.0379 -0.3634576,0.0379 -0.4616427,0 -0.7320827,-0.26871 -0.2687175,-0.26872 -0.2687175,-0.72692 0,-0.4737 0.2549371,-0.75103 0.2566596,-0.27905 0.6907416,-0.27905 0.3892958,0 0.6149495,0.25149 0.2273763,0.24977 0.2273763,0.68041 z m -0.3169487,-0.093 q -0.00345,-0.26011 -0.1464166,-0.41513 -0.1412489,-0.15503 -0.3755154,-0.15503 -0.2652723,0 -0.4254693,0.14986 -0.1584744,0.14986 -0.18259,0.42202 z"
           style="font-size:3.52777767px;stroke-width:0.07000434px"
           id="path7955"
           inkscape:connector-curvature="0" />
        <path
           d="m 5.96104,212.25772 -0.9818522,-2.57176 h 0.3634576 l 0.814765,2.16524 0.8164876,-2.16524 h 0.361735 l -0.9801296,2.57176 z"
           style="font-size:3.52777767px;stroke-width:0.07000434px"
           id="path7957"
           inkscape:connector-curvature="0" />
        <path
           d="m 9.6352342,209.88405 v 0.3669 q -0.1756999,-0.16364 -0.3755154,-0.2446 -0.198093,-0.081 -0.4220242,-0.081 -0.4409722,0 -0.6752387,0.27044 -0.2342665,0.26872 -0.2342665,0.77859 0,0.50815 0.2342665,0.77859 0.2342665,0.26872 0.6752387,0.26872 0.2239312,0 0.4220242,-0.081 0.1998155,-0.081 0.3755154,-0.2446 v 0.36346 q -0.1825901,0.12402 -0.3875733,0.18603 -0.2032606,0.062 -0.4306369,0.062 -0.5839436,0 -0.9198404,-0.35656 -0.3358968,-0.35829 -0.3358968,-0.97669 0,-0.62011 0.3358968,-0.97668 0.3358968,-0.35829 0.9198404,-0.35829 0.2308214,0 0.434082,0.062 0.2049832,0.0603 0.3841282,0.18259 z"
           style="font-size:3.52777767px;stroke-width:0.07000434px"
           id="path7959"
           inkscape:connector-curvature="0" />
        <path
           d="m 11.219978,209.92195 q -0.378961,0 -0.602892,0.28249 -0.222208,0.2825 -0.222208,0.76998 0,0.48576 0.222208,0.76826 0.223931,0.2825 0.602892,0.2825 0.37896,0 0.599447,-0.2825 0.222208,-0.2825 0.222208,-0.76826 0,-0.48748 -0.222208,-0.76998 -0.220487,-0.28249 -0.599447,-0.28249 z m 0,-0.2825 q 0.54088,0 0.864719,0.36346 0.323839,0.36173 0.323839,0.97151 0,0.60806 -0.323839,0.97152 -0.323839,0.36173 -0.864719,0.36173 -0.542603,0 -0.868164,-0.36173 -0.323839,-0.36174 -0.323839,-0.97152 0,-0.60978 0.323839,-0.97151 0.325561,-0.36346 0.868164,-0.36346 z"
           style="font-size:3.52777767px;stroke-width:0.07000434px"
           id="path7961"
           inkscape:connector-curvature="0" />
      </g>
    </g>
    <g
       aria-label="Pitch"
       style="font-style:normal;font-variant:normal;font-weight:normal;font-stretch:normal;font-size:2.82222223px;line-height:6.61458302px;font-family:DINPro;-inkscape-font-specification:DINPro;font-variant-ligatures:normal;font-variant-caps:normal;font-variant-numeric:normal;font-feature-settings:normal;text-align:center;letter-spacing:0px;word-spacing:0px;writing-mode:lr-tb;text-anchor:middle;fill:#000000;fill-opacity:1;stroke:none;stroke-width:0.26458332px;stroke-linecap:butt;stroke-linejoin:miter;stroke-opacity:1"
       id="text946"
       transform="translate(0,-6.3499998)">
      <path
         d="m 10.343313,234.08358 c 0,-0.36124 -0.254,-0.58984 -0.6208893,-0.58984 H 8.9745348 v 2.00942 h 0.2144889 v -0.82691 h 0.5334 c 0.3668893,0 0.6208893,-0.23142 0.6208893,-0.59267 z m -0.214489,0 c 0,0.26529 -0.174978,0.40076 -0.4261558,0.40076 H 9.1890237 v -0.79869 h 0.5136445 c 0.2511778,0 0.4261558,0.13264 0.4261558,0.39793 z"
         style="font-size:2.82222223px;text-align:center;text-anchor:middle;stroke-width:0.26458332px"
         id="path973"
         inkscape:connector-curvature="0" />
      <path
         d="m 10.921471,235.50316 v -1.38853 h -0.2032 v 1.38853 z m 0.01411,-1.78365 v -0.2286 h -0.2286 v 0.2286 z"
         style="font-size:2.82222223px;text-align:center;text-anchor:middle;stroke-width:0.26458332px"
         id="path975"
         inkscape:connector-curvature="0" />
      <path
         d="m 11.968251,235.50316 v -0.17498 h -0.107244 c -0.129822,0 -0.189089,-0.0762 -0.189089,-0.2032 v -0.84667 h 0.296333 v -0.15522 h -0.296333 v -0.43462 h -0.2032 v 0.43462 H 11.29374 v 0.15522 h 0.174978 v 0.85232 c 0,0.20602 0.118533,0.37253 0.3556,0.37253 z"
         style="font-size:2.82222223px;text-align:center;text-anchor:middle;stroke-width:0.26458332px"
         id="path977"
         inkscape:connector-curvature="0" />
      <path
         d="m 13.346113,235.31407 -0.138289,-0.13264 c -0.104422,0.11571 -0.186267,0.15804 -0.318911,0.15804 -0.135467,0 -0.248356,-0.0536 -0.321733,-0.15804 -0.06491,-0.0903 -0.09031,-0.19756 -0.09031,-0.37254 0,-0.17498 0.0254,-0.28222 0.09031,-0.37253 0.07338,-0.10442 0.186266,-0.15805 0.321733,-0.15805 0.132644,0 0.214489,0.0395 0.318911,0.15523 l 0.138289,-0.12983 c -0.143933,-0.15522 -0.265289,-0.20602 -0.4572,-0.20602 -0.349956,0 -0.615244,0.23707 -0.615244,0.7112 0,0.47414 0.265288,0.7112 0.615244,0.7112 0.191911,0 0.313267,-0.0508 0.4572,-0.20602 z"
         style="font-size:2.82222223px;text-align:center;text-anchor:middle;stroke-width:0.26458332px"
         id="path979"
         inkscape:connector-curvature="0" />
      <path
         d="m 14.825619,235.50316 v -0.89182 c 0,-0.31327 -0.186267,-0.51365 -0.499534,-0.51365 -0.155222,0 -0.287866,0.0536 -0.389466,0.16934 v -0.77329 h -0.2032 v 2.00942 h 0.2032 v -0.85796 c 0,-0.23989 0.138289,-0.36689 0.347133,-0.36689 0.208844,0 0.338667,0.12418 0.338667,0.36689 v 0.85796 z"
         style="font-size:2.82222223px;text-align:center;text-anchor:middle;stroke-width:0.26458332px"
         id="path981"
         inkscape:connector-curvature="0" />
    </g>
    <g
       aria-label="1V/oct"
       style="font-style:normal;font-variant:normal;font-weight:normal;font-stretch:normal;font-size:2.82222223px;line-height:6.61458302px;font-family:DINPro;-inkscape-font-specification:DINPro;font-variant-ligatures:normal;font-variant-caps:normal;font-variant-numeric:normal;font-feature-settings:normal;text-align:center;letter-spacing:0px;word-spacing:0px;writing-mode:lr-tb;text-anchor:middle;fill:#000000;fill-opacity:1;stroke:none;stroke-width:0.26458332px;stroke-linecap:butt;stroke-linejoin:miter;stroke-opacity:1"
       id="text950"
       transform="translate(0,-11.37796)">
      <path
         d="m 8.7942542,262.66519 v -2.00942 h -0.2032 l -0.3753555,0.32455 v 0.23143 l 0.3753555,-0.3302 v 1.78364 z"
         style="font-size:2.82222223px;text-align:center;text-anchor:middle;stroke-width:0.26458332px"
         id="path984"
         inkscape:connector-curvature="0" />
      <path
         d="m 10.853021,260.65577 h -0.225778 l -0.522111,1.6256 -0.5221108,-1.6256 H 9.3572434 l 0.6603996,2.00942 h 0.174978 z"
         style="font-size:2.82222223px;text-align:center;text-anchor:middle;stroke-width:0.26458332px"
         id="path986"
         inkscape:connector-curvature="0" />
      <path
         d="m 11.88278,260.44692 h -0.200378 l -0.804333,2.42712 h 0.200377 z"
         style="font-size:2.82222223px;text-align:center;text-anchor:middle;stroke-width:0.26458332px"
         id="path988"
         inkscape:connector-curvature="0" />
      <path
         d="m 13.196436,261.97092 c 0,-0.21448 -0.02822,-0.40922 -0.169334,-0.55315 -0.09596,-0.096 -0.2286,-0.15805 -0.397933,-0.15805 -0.169333,0 -0.301978,0.0621 -0.397933,0.15805 -0.141111,0.14393 -0.169334,0.33867 -0.169334,0.55315 0,0.21449 0.02822,0.40923 0.169334,0.55316 0.09595,0.096 0.2286,0.15804 0.397933,0.15804 0.169333,0 0.301978,-0.0621 0.397933,-0.15804 0.141111,-0.14393 0.169334,-0.33867 0.169334,-0.55316 z m -0.2032,0 c 0,0.15523 -0.0085,0.32738 -0.110067,0.42898 -0.06491,0.0649 -0.155222,0.1016 -0.254,0.1016 -0.09878,0 -0.186267,-0.0367 -0.251178,-0.1016 -0.1016,-0.1016 -0.112889,-0.27375 -0.112889,-0.42898 0,-0.15522 0.01129,-0.32737 0.112889,-0.42897 0.06491,-0.0649 0.1524,-0.1016 0.251178,-0.1016 0.09878,0 0.189089,0.0367 0.254,0.1016 0.1016,0.1016 0.110067,0.27375 0.110067,0.42897 z"
         style="font-size:2.82222223px;text-align:center;text-anchor:middle;stroke-width:0.26458332px"
         id="path990"
         inkscape:connector-curvature="0" />
      <path
         d="m 14.625318,262.4761 -0.138289,-0.13264 c -0.104422,0.11571 -0.186267,0.15804 -0.318911,0.15804 -0.135467,0 -0.248356,-0.0536 -0.321733,-0.15804 -0.06491,-0.0903 -0.09031,-0.19756 -0.09031,-0.37254 0,-0.17497 0.0254,-0.28222 0.09031,-0.37253 0.07338,-0.10442 0.186266,-0.15804 0.321733,-0.15804 0.132644,0 0.214489,0.0395 0.318911,0.15522 l 0.138289,-0.12982 c -0.143933,-0.15523 -0.265289,-0.20603 -0.4572,-0.20603 -0.349956,0 -0.615244,0.23707 -0.615244,0.7112 0,0.47414 0.265288,0.7112 0.615244,0.7112 0.191911,0 0.313267,-0.0508 0.4572,-0.20602 z"
         style="font-size:2.82222223px;text-align:center;text-anchor:middle;stroke-width:0.26458332px"
         id="path992"
         inkscape:connector-curvature="0" />
      <path
         d="m 15.546024,262.66519 v -0.17498 H 15.43878 c -0.129822,0 -0.189089,-0.0762 -0.189089,-0.2032 v -0.84666 h 0.296333 v -0.15523 h -0.296333 v -0.43462 h -0.2032 v 0.43462 h -0.174978 v 0.15523 h 0.174978 v 0.85231 c 0,0.20602 0.118533,0.37253 0.3556,0.37253 z"
         style="font-size:2.82222223px;text-align:center;text-anchor:middle;stroke-width:0.26458332px"
         id="path994"
         inkscape:connector-curvature="0" />
    </g>
    <g
       aria-label="Phase Ramp"
       style="font-style:normal;font-weight:normal;font-size:10.58333302px;line-height:2;font-family:sans-serif;text-align:center;letter-spacing:0px;word-spacing:0px;text-anchor:middle;fill:#000000;fill-opacity:1;stroke:none;stroke-width:0.26458332"
       id="text3831">
      <path
         d="m 3.6469776,284.31319 v 0.77308 h 0.3500217 q 0.1943034,0 0.3004123,-0.1006 0.106109,-0.1006 0.106109,-0.28663 0,-0.18466 -0.106109,-0.28525 -0.1061089,-0.1006 -0.3004123,-0.1006 z m -0.2783637,-0.22876 h 0.6283854 q 0.3458876,0 0.5222765,0.1571 0.1777669,0.15572 0.1777669,0.45751 0,0.30455 -0.1777669,0.46026 -0.1763889,0.15572 -0.5222765,0.15572 H 3.6469776 v 0.82683 H 3.3686139 Z"
         style="font-size:2.82222223px;line-height:2;text-align:center;text-anchor:middle;stroke-width:0.26458332"
         id="path7926"
         inkscape:connector-curvature="0" />
      <path
         d="m 6.3437983,285.21029 v 0.93156 h -0.253559 v -0.92329 q 0,-0.21911 -0.085438,-0.32797 -0.085438,-0.10887 -0.2563151,-0.10887 -0.2053277,0 -0.323839,0.13092 -0.1185113,0.13091 -0.1185113,0.35691 v 0.8723 h -0.254937 v -2.14423 h 0.254937 v 0.8406 q 0.090951,-0.13918 0.213596,-0.20808 0.1240234,-0.0689 0.2852539,-0.0689 0.2659613,0 0.4023871,0.16536 0.1364258,0.16399 0.1364254,0.48369 z"
         style="font-size:2.82222223px;line-height:2;text-align:center;text-anchor:middle;stroke-width:0.26458332"
         id="path7928"
         inkscape:connector-curvature="0" />
      <path
         d="m 7.5537157,285.36601 q -0.3073025,0 -0.4258138,0.0703 -0.1185113,0.0703 -0.1185113,0.23978 0,0.13505 0.088195,0.21497 0.089573,0.0786 0.2425347,0.0786 0.2108399,0 0.3376194,-0.14883 0.1281575,-0.1502 0.1281575,-0.39825 v -0.0565 z m 0.50574,-0.10473 v 0.88057 h -0.253559 v -0.23427 q -0.086816,0.14056 -0.216352,0.20808 -0.1295356,0.0661 -0.3169488,0.0661 -0.2370225,0 -0.3775824,-0.13229 -0.1391819,-0.13367 -0.1391819,-0.35691 0,-0.26045 0.1736328,-0.39275 0.1750109,-0.13229 0.5208985,-0.13229 h 0.3555338 v -0.0248 q 0,-0.17501 -0.1157552,-0.2701 -0.1143772,-0.0965 -0.3224609,-0.0965 -0.1322917,0 -0.2576932,0.0317 -0.1254014,0.0317 -0.2411567,0.0951 v -0.23427 q 0.1391819,-0.0537 0.2700955,-0.0799 0.1309137,-0.0276 0.2549371,-0.0276 0.3348633,0 0.5002279,0.17363 0.1653645,0.17363 0.1653645,0.52641 z"
         style="font-size:2.82222223px;line-height:2;text-align:center;text-anchor:middle;stroke-width:0.26458332"
         id="path7930"
         inkscape:connector-curvature="0" />
      <path
         d="m 9.5670299,284.64392 v 0.23978 q -0.107487,-0.0551 -0.2232422,-0.0827 -0.1157552,-0.0276 -0.2397786,-0.0276 -0.1887912,0 -0.2838759,0.0579 -0.093707,0.0579 -0.093707,0.17363 0,0.0882 0.067524,0.13919 0.067524,0.0496 0.2714735,0.0951 l 0.086816,0.0193 q 0.2700955,0.0579 0.3830946,0.16399 0.1143772,0.10473 0.1143772,0.29352 0,0.21498 -0.1708767,0.34038 -0.1694987,0.1254 -0.467155,0.1254 -0.1240234,0 -0.2590712,-0.0248 -0.1336697,-0.0234 -0.2824978,-0.0716 v -0.26183 q 0.1405599,0.073 0.2769857,0.11024 0.1364258,0.0358 0.2700955,0.0358 0.1791449,0 0.2756076,-0.0606 0.096463,-0.062 0.096463,-0.17364 0,-0.10335 -0.07028,-0.15847 -0.068902,-0.0551 -0.3045464,-0.10611 l -0.088194,-0.0207 q -0.2356446,-0.0496 -0.3403755,-0.15158 -0.1047309,-0.10336 -0.1047309,-0.2825 0,-0.21773 0.1543403,-0.33624 0.1543403,-0.11851 0.4382161,-0.11851 0.1405599,0 0.2645834,0.0207 0.1240234,0.0207 0.2287543,0.062 z"
         style="font-size:2.82222223px;line-height:2;text-align:center;text-anchor:middle;stroke-width:0.26458332"
         id="path7932"
         inkscape:connector-curvature="0" />
      <path
         d="m 11.375016,285.30675 v 0.12403 h -1.165821 q 0.01654,0.26183 0.157097,0.39963 0.141938,0.13642 0.394119,0.13642 0.146072,0 0.282498,-0.0358 0.137803,-0.0358 0.272851,-0.10749 v 0.23978 q -0.136426,0.0579 -0.279742,0.0882 -0.143316,0.0303 -0.290766,0.0303 -0.369314,0 -0.585666,-0.21498 -0.2149739,-0.21497 -0.2149739,-0.58153 0,-0.37896 0.2039499,-0.60082 0.205327,-0.22324 0.552593,-0.22324 0.311437,0 0.49196,0.20119 0.181901,0.19982 0.181901,0.54432 z m -0.253559,-0.0744 q -0.0028,-0.20808 -0.117133,-0.33211 -0.113,-0.12402 -0.300413,-0.12402 -0.212218,0 -0.340375,0.11989 -0.12678,0.11989 -0.146072,0.33762 z"
         style="font-size:2.82222223px;line-height:2;text-align:center;text-anchor:middle;stroke-width:0.26458332"
         id="path7934"
         inkscape:connector-curvature="0" />
      <path
         d="m 13.67634,285.17722 q 0.08957,0.0303 0.173633,0.12953 0.08544,0.0992 0.170877,0.27286 l 0.282497,0.56224 h -0.299034 l -0.263205,-0.52779 q -0.101975,-0.20671 -0.198438,-0.27423 -0.09508,-0.0675 -0.260449,-0.0675 h -0.303168 v 0.86955 h -0.278364 v -2.05742 h 0.628385 q 0.352778,0 0.526411,0.14745 0.173633,0.14745 0.173633,0.44511 0,0.1943 -0.09095,0.32246 -0.08957,0.12816 -0.261827,0.17777 z m -0.697287,-0.86403 v 0.73036 h 0.350021 q 0.201194,0 0.303169,-0.0923 0.103353,-0.0937 0.103353,-0.27423 0,-0.18052 -0.103353,-0.27147 -0.101975,-0.0923 -0.303169,-0.0923 z"
         style="font-size:2.82222223px;line-height:2;text-align:center;text-anchor:middle;stroke-width:0.26458332"
         id="path7936"
         inkscape:connector-curvature="0" />
      <path
         d="m 15.292779,285.36601 q -0.307303,0 -0.425814,0.0703 -0.118512,0.0703 -0.118512,0.23978 0,0.13505 0.0882,0.21497 0.08957,0.0786 0.242535,0.0786 0.210839,0 0.337619,-0.14883 0.128158,-0.1502 0.128158,-0.39825 v -0.0565 z m 0.50574,-0.10473 v 0.88057 H 15.54496 v -0.23427 q -0.08682,0.14056 -0.216352,0.20808 -0.129536,0.0661 -0.316949,0.0661 -0.237023,0 -0.377583,-0.13229 -0.139182,-0.13367 -0.139182,-0.35691 0,-0.26045 0.173633,-0.39275 0.175011,-0.13229 0.520899,-0.13229 h 0.355534 v -0.0248 q 0,-0.17501 -0.115756,-0.2701 -0.114377,-0.0965 -0.322461,-0.0965 -0.132291,0 -0.257693,0.0317 -0.125401,0.0317 -0.241156,0.0951 v -0.23427 q 0.139181,-0.0537 0.270095,-0.0799 0.130914,-0.0276 0.254937,-0.0276 0.334863,0 0.500228,0.17363 0.165365,0.17363 0.165365,0.52641 z"
         style="font-size:2.82222223px;line-height:2;text-align:center;text-anchor:middle;stroke-width:0.26458332"
         id="path7938"
         inkscape:connector-curvature="0" />
      <path
         d="m 17.523822,284.89472 q 0.09509,-0.17088 0.227377,-0.25218 0.132291,-0.0813 0.311436,-0.0813 0.241157,0 0.372071,0.16949 0.130913,0.16813 0.130913,0.47956 v 0.93156 h -0.254937 v -0.92329 q 0,-0.22186 -0.07855,-0.32935 -0.07855,-0.10749 -0.239779,-0.10749 -0.197059,0 -0.311436,0.13092 -0.114378,0.13091 -0.114378,0.35691 v 0.8723 h -0.254937 v -0.92329 q 0,-0.22324 -0.07855,-0.32935 -0.07855,-0.10749 -0.242535,-0.10749 -0.194303,0 -0.30868,0.13229 -0.114377,0.13092 -0.114377,0.35554 v 0.8723 h -0.254937 v -1.54341 h 0.254937 v 0.23978 q 0.08682,-0.14194 0.208084,-0.20946 0.121267,-0.0675 0.28801,-0.0675 0.16812,0 0.285253,0.0854 0.118512,0.0854 0.175011,0.24805 z"
         style="font-size:2.82222223px;line-height:2;text-align:center;text-anchor:middle;stroke-width:0.26458332"
         id="path7940"
         inkscape:connector-curvature="0" />
      <path
         d="m 19.318028,285.91034 v 0.81855 h -0.254937 v -2.13045 h 0.254937 v 0.23427 q 0.07993,-0.1378 0.201194,-0.20395 0.122645,-0.0675 0.292144,-0.0675 0.28112,0 0.456131,0.22324 0.176389,0.22324 0.176389,0.58704 0,0.3638 -0.176389,0.58705 -0.175011,0.22324 -0.456131,0.22324 -0.169499,0 -0.292144,-0.0661 -0.121267,-0.0675 -0.201194,-0.20532 z m 0.862652,-0.53882 q 0,-0.27974 -0.115755,-0.43821 -0.114377,-0.15986 -0.315571,-0.15986 -0.201193,0 -0.316948,0.15986 -0.114378,0.15847 -0.114378,0.43821 0,0.27974 0.114378,0.4396 0.115755,0.15847 0.316948,0.15847 0.201194,0 0.315571,-0.15847 0.115755,-0.15986 0.115755,-0.4396 z"
         style="font-size:2.82222223px;line-height:2;text-align:center;text-anchor:middle;stroke-width:0.26458332"
         id="path7942"
         inkscape:connector-curvature="0" />
    </g>
    <g
       aria-label="Sin      Cos "
       style="font-style:normal;font-weight:normal;font-size:10.58333302px;line-height:2;font-family:sans-serif;text-align:center;letter-spacing:0px;word-spacing:0px;text-anchor:middle;fill:#000000;fill-opacity:1;stroke:none;stroke-width:0.26458332"
       id="text3831-3">
      <path
         d="m 5.8601074,267.05259 v 0.27148 q -0.1584744,-0.0758 -0.2990343,-0.113 -0.1405599,-0.0372 -0.2714735,-0.0372 -0.2273763,0 -0.3513998,0.0882 -0.1226454,0.0882 -0.1226454,0.2508 0,0.13642 0.081304,0.2067 0.082682,0.0689 0.3114366,0.11162 l 0.1681207,0.0345 q 0.3114366,0.0593 0.4588867,0.20946 0.1488281,0.14883 0.1488281,0.39963 0,0.29903 -0.2011935,0.45337 -0.1998156,0.15434 -0.5870443,0.15434 -0.1460721,0 -0.3114366,-0.0331 -0.1639866,-0.0331 -0.3403755,-0.0978 v -0.28663 q 0.1694987,0.0951 0.3321072,0.14331 0.1626085,0.0482 0.3197049,0.0482 0.2384006,0 0.3679362,-0.0937 0.1295356,-0.0937 0.1295356,-0.26734 0,-0.15158 -0.093707,-0.23702 -0.092329,-0.0854 -0.3045465,-0.12816 l -0.1694987,-0.0331 q -0.3114366,-0.062 -0.4506185,-0.19431 -0.1391818,-0.13229 -0.1391818,-0.36793 0,-0.27285 0.1915473,-0.42995 0.1929253,-0.1571 0.5305447,-0.1571 0.144694,0 0.2949002,0.0262 0.1502061,0.0262 0.3073025,0.0785 z"
         style="font-size:2.82222223px;line-height:2;text-align:center;text-anchor:middle;stroke-width:0.26458332"
         id="path7913"
         inkscape:connector-curvature="0" />
      <path
         d="m 6.4071886,267.49908 h 0.253559 v 1.5434 h -0.253559 z m 0,-0.60083 h 0.253559 v 0.32109 h -0.253559 z"
         style="font-size:2.82222223px;line-height:2;text-align:center;text-anchor:middle;stroke-width:0.26458332"
         id="path7915"
         inkscape:connector-curvature="0" />
      <path
         d="m 8.4728678,268.11093 v 0.93155 h -0.253559 v -0.92329 q 0,-0.2191 -0.085438,-0.32797 -0.085438,-0.10886 -0.2563151,-0.10886 -0.2053277,0 -0.323839,0.13091 -0.1185112,0.13091 -0.1185112,0.35691 v 0.8723 H 7.180268 v -1.5434 h 0.2549371 v 0.23978 q 0.09095,-0.13919 0.2135959,-0.20809 0.1240234,-0.0689 0.2852539,-0.0689 0.2659614,0 0.4023871,0.16537 0.1364258,0.16398 0.1364258,0.48369 z"
         style="font-size:2.82222223px;line-height:2;text-align:center;text-anchor:middle;stroke-width:0.26458332"
         id="path7917"
         inkscape:connector-curvature="0" />
      <path
         d="m 15.923921,267.14354 v 0.29353 q -0.14056,-0.13092 -0.300413,-0.19569 -0.158474,-0.0648 -0.337619,-0.0648 -0.352778,0 -0.540191,0.21635 -0.187413,0.21497 -0.187413,0.62287 0,0.40652 0.187413,0.62288 0.187413,0.21497 0.540191,0.21497 0.179145,0 0.337619,-0.0648 0.159853,-0.0648 0.300413,-0.19568 v 0.29077 q -0.146072,0.0992 -0.310059,0.14882 -0.162608,0.0496 -0.344509,0.0496 -0.467155,0 -0.735873,-0.28525 -0.268717,-0.28663 -0.268717,-0.78135 0,-0.49609 0.268717,-0.78135 0.268718,-0.28663 0.735873,-0.28663 0.184657,0 0.347265,0.0496 0.163987,0.0482 0.307303,0.14607 z"
         style="font-size:2.82222223px;line-height:2;text-align:center;text-anchor:middle;stroke-width:0.26458332"
         id="path7919"
         inkscape:connector-curvature="0" />
      <path
         d="m 16.943669,267.67684 q -0.20395,0 -0.322461,0.15986 -0.118511,0.15847 -0.118511,0.43546 0,0.27698 0.117133,0.43684 0.118511,0.15847 0.323839,0.15847 0.202571,0 0.321083,-0.15985 0.118511,-0.15986 0.118511,-0.43546 0,-0.27423 -0.118511,-0.43408 -0.118512,-0.16124 -0.321083,-0.16124 z m 0,-0.21497 q 0.330729,0 0.51952,0.21497 0.188791,0.21498 0.188791,0.59532 0,0.37896 -0.188791,0.59531 -0.188791,0.21497 -0.51952,0.21497 -0.332107,0 -0.520899,-0.21497 -0.187413,-0.21635 -0.187413,-0.59531 0,-0.38034 0.187413,-0.59532 0.188792,-0.21497 0.520899,-0.21497 z"
         style="font-size:2.82222223px;line-height:2;text-align:center;text-anchor:middle;stroke-width:0.26458332"
         id="path7921"
         inkscape:connector-curvature="0" />
      <path
         d="m 19.054823,267.54455 v 0.23978 q -0.107487,-0.0551 -0.223242,-0.0827 -0.115755,-0.0276 -0.239779,-0.0276 -0.188791,0 -0.283876,0.0579 -0.09371,0.0579 -0.09371,0.17363 0,0.0882 0.06752,0.13918 0.06752,0.0496 0.271473,0.0951 l 0.08682,0.0193 q 0.270095,0.0579 0.383094,0.16398 0.114377,0.10474 0.114377,0.29353 0,0.21497 -0.170876,0.34037 -0.169499,0.1254 -0.467155,0.1254 -0.124024,0 -0.259071,-0.0248 -0.13367,-0.0234 -0.282498,-0.0717 v -0.26183 q 0.14056,0.073 0.276985,0.11025 0.136426,0.0358 0.270096,0.0358 0.179145,0 0.275607,-0.0606 0.09646,-0.062 0.09646,-0.17363 0,-0.10335 -0.07028,-0.15848 -0.0689,-0.0551 -0.304546,-0.1061 l -0.0882,-0.0207 q -0.235644,-0.0496 -0.340375,-0.15159 -0.104731,-0.10335 -0.104731,-0.2825 0,-0.21773 0.15434,-0.33624 0.154341,-0.11851 0.438216,-0.11851 0.14056,0 0.264584,0.0207 0.124023,0.0207 0.228754,0.062 z"
         style="font-size:2.82222223px;line-height:2;text-align:center;text-anchor:middle;stroke-width:0.26458332"
         id="path7923"
         inkscape:connector-curvature="0" />
    </g>
  </g>
</svg>
